HIERARCHY
ROOT Hips
{
    OFFSET 14.017959594726562 94.20136260986328 -18.27743911743164
    CHANNELS 6 Xposition Yposition Zposition Zrotation Xrotation Yrotation
    JOINT RightUpLeg
    {
        OFFSET -14.017959594726562 0.0 0.0
        CHANNELS 3 Zrotation Xrotation Yrotation
        JOINT RightLeg
        {
            OFFSET 0.0 -48.50776672363281 0.0
            CHANNELS 3 Zrotation Xrotation Yrotation
            JOINT RightFoot
            {
                OFFSET 0.0 -45.69359588623047 0.0
                CHANNELS 3 Zrotation Xrotation Yrotation
                End Site
                {
                    OFFSET 0.0 0.0 18.27743911743164
                }
            }
        }
    }
    JOINT LeftUpLeg
    {
        OFFSET 14.017959594726562 0.0 0.0
        CHANNELS 3 Zrotation Xrotation Yrotation
        JOINT LeftLeg
        {
            OFFSET 0.0 -48.50776672363281 0.0
            CHANNELS 3 Zrotation Xrotation Yrotation
            JOINT LeftFoot
            {
                OFFSET 0.0 -45.69359588623047 0.0
                CHANNELS 3 Zrotation Xrotation Yrotation
                End Site
                {
                    OFFSET 0.0 0.0 18.27743911743164
                }
            }
        }
    }
    JOINT Spine
    {
        OFFSET 0.0 25.817413330078125 0.0
        CHANNELS 3 Zrotation Xrotation Yrotation
        JOINT Spine3
        {
            OFFSET 0.0 25.65521240234375 0.0
            CHANNELS 3 Zrotation Xrotation Yrotation
            JOINT Neck
            {
                OFFSET 0.0 11.8610200881958 0.0
                CHANNELS 3 Zrotation Xrotation Yrotation
                End Site
                {
                    OFFSET 0.0 4.74440860748291 0.0
                }
            }
            JOINT LeftArm
            {
                OFFSET 14.991311073303223 0.0 0.0
                CHANNELS 3 Zrotation Xrotation Yrotation
                JOINT LeftForeArm
                {
                    OFFSET 29.050922393798828 0.0 0.0
                    CHANNELS 3 Zrotation Xrotation Yrotation
                    JOINT LeftHand
                    {
                        OFFSET 23.151012420654297 0.0 0.0
                        CHANNELS 3 Zrotation Xrotation Yrotation
                        End Site
                        {
                            OFFSET 9.260404586791992 0.0 0.0
                        }
                    }
                }
            }
            JOINT RightArm
            {
                OFFSET -14.991311073303223 0.0 0.0
                CHANNELS 3 Zrotation Xrotation Yrotation
                JOINT RightForeArm
                {
                    OFFSET -29.050922393798828 0.0 0.0
                    CHANNELS 3 Zrotation Xrotation Yrotation
                    JOINT RightHand
                    {
                        OFFSET -23.151012420654297 0.0 0.0
                        CHANNELS 3 Zrotation Xrotation Yrotation
                        End Site
                        {
                            OFFSET -9.260404586791992 0.0 0.0
                        }
                    }
                }
            }
        }
    }
}
MOTION
Frames: 4
Frame Time: 0.03333333333333333
-0.00016581093950662762 95.09146881103516 -0.0008383238455280662 -7.023302245067636 -14.441114108004962 -16.44911591327315 5.215544009049362 23.573507037994084 -2.989670364847113 -4.957962185296701 6.436144661007571 -0.20783719389255376 9.93923337957349e-17 -1.5902773407317584e-15 -1.2424041724466862e-16 1.9368158178132953 27.293578576199632 -1.9179531077616916 -0.6664287939434086 3.4071515466693425 -0.18137441649690955 -9.939233379573492e-17 -3.1743426606012833e-15 -8.013506912281126e-16 6.555204475054712 29.72941515188661 -4.383538310632533 1.0249919527843475e-07 -4.7140250803408814e-07 -1.8281869147459862 -0.5116679275310582 -3.626061591832751 -176.14330310906055 108.37915676217887 -28.941656161046716 -175.65655057658785 -5.482484067224982e-06 -5.220205434626681e-06 25.503980366215853 -4.770832022195275e-15 0.0 0.0 -111.11997809866696 -19.064119873666893 174.85026925756233 6.050751396085626e-06 -1.8430434525753157e-07 -19.91083023774546 -5.0317368984090795e-15 -3.4914688490435827e-32 7.951386703658792e-16
-0.0001343028125120327 95.0914306640625 -0.0008501799893565476 -7.088570782908616 -14.418666161247264 -16.251770456015702 5.163870737789674 23.572093571438256 -2.904002013416481 -4.865247866897885 6.686767431656181 -0.20424839516978488 5.963540027744093e-16 2.4848083448933725e-17 8.199867538148127e-16 2.4150736438397127 27.105563795769164 -2.0520255665080622 -0.7762091892434948 3.169779478534712 -0.17876267011271274 0.0 0.0 6.957463365701443e-16 6.5986914057149475 30.345963264721966 -4.406225764085749 -5.09136984946767e-07 1.5038075925867637e-07 -1.3137350504434617 0.16268916996221056 -4.1752766374622015 -176.57206261263786 109.31452440979477 -27.954426192923677 -175.41753638389045 -4.244612139078348e-07 -8.651280136726569e-07 26.696894992351243 -4.770832022195275e-15 0.0 0.0 -112.56247536586392 -19.110643893967747 174.44999361920125 2.3208396461212383e-06 2.8395047993552113e-08 -20.91318537093612 -7.40472886778225e-15 0.0 0.0
-0.0001081308291759342 95.09133911132812 -0.0008257744484581053 -7.14559629644711 -14.514876263547688 -15.781818383902735 5.096248812404727 23.688649055505888 -2.808235313879778 -4.291370052284211 6.872496787801896 -0.24852929790492795 -9.93923337957349e-17 -2.9526619278948813e-33 3.40418743250392e-15 3.227778458224795 26.87302986163376 -2.3136592316377644 -1.4537502514143867 3.4161308732061735 -0.1852100074577018 9.939233379573495e-17 1.5964893615939914e-15 -3.944633247518228e-15 6.698508273184769 30.88332269628618 -4.423484062188348 -2.8965149880209616e-08 2.3875565671742223e-06 -1.1507498916214332 0.9408979342896134 -4.270600198612058 -176.31618435593901 110.30994641359837 -27.552966050694085 -174.75502949096094 -7.1788658083516555e-06 4.269496139628806e-06 27.118191184051796 -7.95138670365879e-15 4.413906298050159e-31 -6.361109362927033e-15 -114.08993782629861 -17.964733092539134 173.61649536402626 -2.244636790440226e-06 -2.2424339308339645e-06 -21.47103782335378 1.8636062586700292e-15 0.0 0.0
-0.00010925477545242757 95.09123992919922 -0.0008066794252954423 -7.155795237706411 -14.806105896917025 -16.10022672622257 4.950312023637032 24.135977608961177 -2.8904232521361797 -4.817554406604595 6.935007598860242 -0.193109099376488 2.8017959899732454e-34 -2.4848083448933725e-17 1.2921003393445538e-15 3.335689637061525 26.937570972743412 -2.4697803711959168 -1.2695953644410345 3.488337833638366 -0.2182185420755252 5.963540027744094e-16 -4.4613213071112446e-33 -8.572588789882135e-16 6.265680730266972 31.127239262634845 -4.344940805169005 -6.569697025261688e-08 -9.382457573306154e-08 -0.8382591871877528 1.513558812981175 -4.129669149712058 -175.9986693564148 110.88376989711747 -25.54070656358135 -175.0321993461534 -4.090965206547055e-08 5.499404967604626e-07 26.68186996700574 -9.54166404439055e-15 3.1805546814635176e-15 -6.3611093629270335e-15 -115.39321696492775 -14.816215295370602 173.50250327664727 4.747260515734298e-06 -7.963989436657969e-07 -21.33613704865004 8.696829207126805e-16 -7.951386703658794e-16 -7.951386703658794e-16
